HIERARCHY
ROOT SpineBase
{
  OFFSET 0.000000 0.000000 0.000000
  CHANNELS 6 Xposition Yposition Zposition Zrotation Xrotation Yrotation
  JOINT SpineMid
  {
    OFFSET 0.000000 32.203239 0.000000
    CHANNELS 3 Zrotation Xrotation Yrotation
    JOINT SpineShoulder
    {
      OFFSET 0.359056 23.897732 -0.638242
      CHANNELS 3 Zrotation Xrotation Yrotation
      JOINT Neck
      {
        OFFSET 0.230466 7.910979 -0.487340
        CHANNELS 3 Zrotation Xrotation Yrotation
        JOINT Head
        {
          OFFSET -5.567964 14.258327 -0.760624
          CHANNELS 3 Zrotation Xrotation Yrotation
          End Site
          {
            OFFSET 0 0 0
          }
        }
      }
      JOINT ShoulderLeft
      {
        OFFSET -17.708444 -6.388572 6.057163
        CHANNELS 3 Zrotation Xrotation Yrotation
        JOINT ElbowLeft
        {
          OFFSET -0.815711 -27.047153 2.620770
          CHANNELS 3 Zrotation Xrotation Yrotation
          JOINT WristLeft
          {
            OFFSET -0.157378 -21.822108 -3.465422
            CHANNELS 3 Zrotation Xrotation Yrotation
            JOINT HandLeft
            {
              OFFSET 0.311855 -5.467298 -1.639690
              CHANNELS 3 Zrotation Xrotation Yrotation
              JOINT HandTipLeft
              {
                OFFSET 0.817088 -6.843567 -2.045428
                CHANNELS 3 Zrotation Xrotation Yrotation
                End Site
                {
                  OFFSET 0 0 0
                }
              }
              JOINT ThumbLeft
              {
                OFFSET -1.895361 -1.930622 -2.492616
                CHANNELS 3 Zrotation Xrotation Yrotation
                End Site
                {
                  OFFSET 0 0 0
                }
              }
            }
          }
        }
      }
      JOINT ShoulderRight
      {
        OFFSET 15.539817 -3.163585 -7.837573
        CHANNELS 3 Zrotation Xrotation Yrotation
        JOINT ElbowRight
        {
          OFFSET 6.884645 -26.684236 -1.114391
          CHANNELS 3 Zrotation Xrotation Yrotation
          JOINT WristRight
          {
            OFFSET -0.343453 -21.600558 -6.275012
            CHANNELS 3 Zrotation Xrotation Yrotation
            JOINT HandRight
            {
              OFFSET -2.100947 -7.476800 -0.248516
              CHANNELS 3 Zrotation Xrotation Yrotation
              JOINT HandTipRight
              {
                OFFSET -0.590348 -6.437085 -1.498188
                CHANNELS 3 Zrotation Xrotation Yrotation
                End Site
                {
                  OFFSET 0 0 0
                }
              }
              JOINT ThumbRight
              {
                OFFSET -2.576703 1.242867 -1.273906
                CHANNELS 3 Zrotation Xrotation Yrotation
                End Site
                {
                  OFFSET 0 0 0
                }
              }
            }
          }
        }
      }
    }
  }
  JOINT HipLeft
  {
    OFFSET -6.195592 0.011100 -1.212250
    CHANNELS 3 Zrotation Xrotation Yrotation
    JOINT KneeLeft
    {
      OFFSET 2.690913 -35.845055 4.820995
      CHANNELS 3 Zrotation Xrotation Yrotation
      JOINT AnkleLeft
      {
        OFFSET 4.255090 -35.905649 7.557289
        CHANNELS 3 Zrotation Xrotation Yrotation
        JOINT FootLeft
        {
          OFFSET 0.105102 -8.624327 -5.291126
          CHANNELS 3 Zrotation Xrotation Yrotation
          End Site
          {
            OFFSET 0 0 0
          }
        }
      }
    }
  }
  JOINT HipRight
  {
    OFFSET 7.776166 1.855702 -6.040700
    CHANNELS 3 Zrotation Xrotation Yrotation
    JOINT KneeRight
    {
      OFFSET 8.737666 -33.861581 0.586480
      CHANNELS 3 Zrotation Xrotation Yrotation
      JOINT AnkleRight
      {
        OFFSET 4.901228 -36.528154 7.338476
        CHANNELS 3 Zrotation Xrotation Yrotation
        JOINT FootRight
        {
          OFFSET -0.861009 -8.208967 -5.453418
          CHANNELS 3 Zrotation Xrotation Yrotation
          End Site
          {
            OFFSET 0 0 0
          }
        }
      }
    }
  }
}
MOTION
Frames: 14
Frame Time: 0.033333
-71.780749 80.544038 326.895894 -0.000000 0.000000 19.064453 -0.000000 0.000000 -19.064453 -0.000000 0.000000 0.000000 -0.000000 0.000000 0.000000 0.000000 0.000000 0.000000 -0.000000 0.000000 0.000000 -0.000000 0.000000 0.000000 -0.000000 0.000000 0.000000 -0.000000 0.000000 0.000000 0.000000 0.000000 0.000000 0.000000 0.000000 0.000000 -0.000000 0.000000 0.000000 -0.000000 0.000000 0.000000 -0.000000 0.000000 0.000000 -0.000000 0.000000 0.000000 0.000000 0.000000 0.000000 0.000000 0.000000 0.000000 -0.000000 0.000000 -19.064453 -0.000000 0.000000 0.000000 -0.000000 0.000000 0.000000 0.000000 0.000000 0.000000 -0.000000 0.000000 -19.064453 -0.000000 0.000000 0.000000 -0.000000 0.000000 0.000000 0.000000 0.000000 0.000000
-71.573320 80.560238 326.646856 -0.002564 0.266750 19.172450 -0.085182 -0.252796 -19.172632 -0.000000 0.000000 0.000000 -0.000000 0.000000 0.000000 0.000000 0.000000 0.000000 -0.000000 0.000000 0.000000 -0.000000 0.000000 0.000000 0.794749 1.147982 -0.180222 -1.407333 -1.923116 0.240669 0.000000 0.000000 0.000000 0.000000 0.000000 0.000000 -0.000000 0.000000 0.000000 -0.000000 0.000000 0.000000 0.246490 1.176632 -0.341453 0.986396 -2.159098 0.178439 0.000000 0.000000 0.000000 0.000000 0.000000 0.000000 -0.085182 -0.252796 -19.172632 -0.000000 0.000000 0.000000 -2.037071 4.055810 1.342547 0.000000 0.000000 0.000000 -0.085182 -0.252796 -19.172632 -0.000000 0.000000 0.000000 -0.000000 0.000000 0.000000 0.000000 0.000000 0.000000
-71.384402 80.575624 326.426553 -0.010664 0.496722 19.261418 -0.153794 -0.472434 -19.262006 -0.000000 0.000000 0.000000 -0.000000 0.000000 0.000000 0.000000 0.000000 0.000000 -0.000000 0.000000 0.000000 -0.000000 0.000000 0.000000 1.448073 1.972525 -0.344690 -2.445828 -3.222725 0.405036 0.000000 0.000000 0.000000 0.000000 0.000000 0.000000 -0.000000 0.000000 0.000000 -0.631587 -1.060056 0.194999 1.116217 3.235185 -0.853154 1.816018 -4.032241 0.391392 0.000000 0.000000 0.000000 0.000000 0.000000 0.000000 -0.153794 -0.472434 -19.262006 -0.000000 0.000000 0.000000 -3.850059 7.412474 2.600161 0.000000 0.000000 0.000000 -0.153794 -0.472434 -19.262006 -0.000000 0.000000 0.000000 -0.000000 0.000000 0.000000 0.000000 0.000000 0.000000
-71.213995 80.590196 326.234985 -0.024298 0.689897 19.331460 -0.205459 -0.659043 -19.332496 -0.000000 0.000000 0.000000 -0.000000 0.000000 0.000000 0.000000 0.000000 0.000000 -0.506191 0.727028 -0.067796 0.507091 -0.726400 0.074222 1.965993 2.487810 -0.486793 -3.110242 -3.886310 0.523271 0.000000 0.000000 0.000000 0.000000 0.000000 0.000000 -0.000000 0.000000 0.000000 -0.858054 -1.502043 0.262877 1.557299 4.502615 -1.190303 2.480368 -5.619322 0.614147 0.000000 0.000000 0.000000 0.000000 0.000000 0.000000 -0.205459 -0.659043 -19.332496 -0.000000 0.000000 0.000000 -5.397205 10.073541 3.712820 0.000000 0.000000 0.000000 -0.409985 -1.515751 -19.560803 -0.872964 0.730311 0.060280 0.778909 0.144668 0.174797 0.000000 0.000000 0.000000
-71.062100 80.603954 326.072152 -0.043463 0.846270 19.382653 -0.239871 -0.812729 -19.384034 -0.000000 0.000000 0.000000 -0.000000 0.000000 0.000000 0.000000 0.000000 0.000000 -0.608776 0.752170 -0.077715 0.609849 -0.751301 0.085709 2.353000 2.703593 -0.602104 -3.400947 -3.911457 0.612552 0.000000 0.000000 0.000000 0.000000 0.000000 0.000000 -0.000000 0.000000 0.000000 -1.025470 -1.885135 0.312462 1.914953 5.538941 -1.462933 2.972307 -6.922573 0.825653 0.000000 0.000000 0.000000 0.000000 0.000000 0.000000 -0.894559 -1.340670 -19.509445 0.440782 0.716174 0.110354 -6.648167 12.067854 4.634489 0.000000 0.000000 0.000000 -0.481019 -1.885278 -19.669083 -1.138204 0.906682 0.071981 1.004308 0.183314 0.224568 0.000000 0.000000 0.000000
-70.928715 80.616899 325.938055 -0.068156 0.965844 19.415048 -0.256794 -0.933574 -19.416565 -0.000000 0.000000 0.000000 -0.000000 0.000000 0.000000 0.000000 0.000000 0.000000 -0.678464 0.668760 -0.081983 0.679466 -0.667742 0.089902 2.612077 2.624908 -0.687993 -3.326132 -3.305848 0.676624 0.000000 0.000000 0.000000 0.000000 0.000000 0.000000 -0.000000 0.000000 0.000000 -1.134117 -2.209277 0.344613 2.185954 6.346168 -1.667945 3.286632 -7.945530 1.008949 0.000000 0.000000 0.000000 0.000000 0.000000 0.000000 -1.018550 -1.508199 -19.563316 -0.007069 0.194034 -0.052016 -7.113165 14.006063 5.599104 0.000000 0.000000 0.000000 -0.518045 -2.187439 -19.748097 -1.391692 1.049622 0.078182 1.213889 0.217328 0.270455 0.000000 0.000000 0.000000
-70.808374 80.629014 325.810750 -0.110946 1.045858 19.317183 -0.241287 -1.023677 -19.318326 -0.000000 0.000000 0.000000 -0.000000 0.000000 0.000000 0.000000 0.000000 0.000000 -0.000000 0.000000 0.000000 -0.000000 0.000000 0.000000 2.572666 1.886258 -0.702077 -2.550791 -1.915745 0.617063 0.000000 0.000000 0.000000 0.000000 0.000000 0.000000 -0.000000 0.000000 0.000000 -1.175843 -2.397051 0.357227 2.844100 7.287322 -1.984143 2.472459 -10.235576 1.508236 0.000000 0.000000 0.000000 0.000000 0.000000 0.000000 -1.084235 -1.642395 -19.482031 -0.022540 0.186841 -0.063633 -7.760319 15.743688 6.212123 0.000000 0.000000 0.000000 -0.436657 -2.450353 -19.683052 -1.780681 1.121562 0.059078 0.955249 -0.506704 0.770336 0.000000 0.000000 0.000000
-70.716229 80.637768 325.732473 -0.154216 1.080758 19.320588 -0.212057 -1.070913 -19.321116 -0.000000 0.000000 0.000000 -0.000000 0.000000 0.000000 0.000000 0.000000 0.000000 -0.000000 0.000000 0.000000 0.830489 0.295475 -0.136110 2.063788 0.652322 -0.688805 -1.210428 1.056294 0.520391 0.000000 0.000000 0.000000 0.000000 0.000000 0.000000 0.804826 -0.348673 -0.120918 -1.973255 -2.192985 0.490512 3.462200 7.474473 -2.083760 2.596627 -11.728102 1.654611 0.000000 0.000000 0.000000 0.000000 0.000000 0.000000 -1.097988 -1.659088 -19.492031 -0.010773 0.124006 -0.072208 -8.368801 16.839903 6.737013 0.000000 0.000000 0.000000 -0.338862 -2.621855 -19.706465 -2.090348 1.138962 0.038404 0.650759 -0.055260 1.118519 0.000000 0.000000 0.000000
-70.638962 80.651352 325.691040 -0.189895 1.080272 19.340499 -0.178596 -1.082197 -19.340396 -0.000000 0.000000 0.000000 -0.000000 0.000000 0.000000 0.000000 0.000000 0.000000 -0.711582 -0.445017 -0.058260 1.651051 1.059140 -0.113241 2.039691 0.125894 -0.688035 -0.416922 1.386506 0.301413 0.000000 0.000000 0.000000 0.000000 0.000000 0.000000 0.802693 -0.367969 -0.125673 -1.883775 -2.367032 0.473379 2.908585 7.870387 -2.068257 3.296719 -10.664231 1.530187 0.000000 0.000000 0.000000 0.000000 0.000000 0.000000 -1.101183 -1.593711 -19.515290 0.035916 0.024826 -0.076989 -8.421907 16.814776 6.791794 0.000000 0.000000 0.000000 -0.279471 -2.705300 -19.739407 -2.303684 1.229382 0.031362 0.144780 -0.163348 1.599958 0.000000 0.000000 0.000000
-70.600899 80.659360 325.726033 -0.234927 1.043032 19.391126 -0.124702 -1.061863 -19.390143 -0.000000 0.000000 0.000000 -0.000000 0.000000 0.000000 0.000000 0.000000 0.000000 -0.680877 -0.733481 -0.048174 1.771367 1.697161 -0.163713 1.394118 -1.257222 -0.541919 0.068774 3.738985 0.316227 0.000000 0.000000 0.000000 0.000000 0.000000 0.000000 0.794621 -0.432403 -0.141518 -1.729470 -2.555544 0.453451 2.305763 7.115592 -1.678605 3.206736 -8.232352 1.017964 0.000000 0.000000 0.000000 0.000000 0.000000 0.000000 -1.046278 -1.435920 -19.559824 0.065351 -0.125053 -0.087350 -8.530993 16.229274 6.856260 0.000000 0.000000 0.000000 -0.225441 -2.651387 -19.780988 -2.356033 1.261685 0.020654 -0.235455 -0.272466 1.900965 0.000000 0.000000 0.000000
-70.541485 80.671379 325.748451 -0.252148 1.033468 19.460226 -0.106556 -1.058431 -19.458936 -0.000000 0.000000 0.000000 -0.000000 0.000000 0.000000 0.000000 0.000000 0.000000 -0.674299 -1.024025 -0.040437 1.854178 2.237019 -0.201084 0.687143 -2.906789 -0.405392 -0.444699 4.443932 0.499865 0.000000 0.000000 0.000000 0.000000 0.000000 0.000000 0.741753 -0.544225 -0.167621 -1.502094 -2.719354 0.437566 1.391168 6.585421 -1.308526 3.426193 -7.150022 0.753500 0.000000 0.000000 0.000000 0.000000 0.000000 0.000000 -1.079718 -1.337887 -19.634238 0.145519 -0.186149 -0.081440 -7.805280 13.043549 6.188774 0.000000 0.000000 0.000000 -0.276725 -2.644322 -19.858131 -2.376043 1.392392 0.028752 -0.568669 -0.018010 2.140754 0.000000 0.000000 0.000000
-70.487180 80.678590 325.777172 -0.271882 1.011177 19.492563 -0.081108 -1.043941 -19.490902 -0.000000 0.000000 0.000000 -0.000000 0.000000 0.000000 0.000000 0.000000 0.000000 -0.744529 -1.368667 -0.039703 1.945391 2.705563 -0.220801 0.643165 -2.522305 -0.371275 -1.028771 3.629830 0.644019 0.000000 0.000000 0.000000 0.000000 0.000000 0.000000 -0.000000 0.000000 0.000000 -0.333802 -3.716030 0.146623 0.471460 6.611581 -0.997721 3.961464 -6.627271 0.570917 0.000000 0.000000 0.000000 0.000000 0.000000 0.000000 -1.097893 -1.243893 -19.670731 0.205847 -0.217816 -0.075453 -6.897007 9.432140 5.399990 0.000000 0.000000 0.000000 -0.322131 -2.618691 -19.896898 -2.389039 1.535024 0.038370 -0.695189 -0.118015 2.271178 0.000000 0.000000 0.000000
-70.443091 80.685597 325.814365 -0.285846 0.983171 19.520949 -0.059103 -1.022170 -19.519023 -0.000000 0.000000 0.000000 -0.000000 0.000000 0.000000 0.000000 0.000000 0.000000 -0.867657 -1.667752 -0.046326 2.279847 3.123794 -0.272271 0.408451 -1.740800 -0.292935 -1.793014 1.999161 0.757643 0.000000 0.000000 0.000000 0.000000 0.000000 0.000000 -0.000000 0.000000 0.000000 -0.156387 -4.160878 0.107065 -0.906964 7.172792 -0.820742 3.930992 -6.850532 0.795251 0.000000 0.000000 0.000000 0.000000 0.000000 0.000000 -1.091416 -1.151521 -19.698687 0.222777 -0.263110 -0.077806 -5.602293 4.628774 4.350107 0.000000 0.000000 0.000000 -0.313287 -2.561050 -19.918073 -2.448674 1.569116 0.024874 -0.664249 -0.303528 2.323999 0.000000 0.000000 0.000000
-70.410685 80.690727 325.851615 -0.293032 0.970530 19.505596 -0.047834 -1.012670 -19.503537 -0.000000 0.000000 0.000000 -0.000000 0.000000 0.000000 0.000000 0.000000 0.000000 -1.007820 -1.891911 -0.057128 2.609512 3.407568 -0.314944 0.153687 -1.407026 -0.229387 -1.652957 0.958254 0.612711 0.000000 0.000000 0.000000 0.000000 0.000000 0.000000 0.835673 -0.812854 -0.238317 -1.263907 -3.525464 0.440050 -1.946376 8.162951 -0.944758 4.423971 -8.081506 1.237994 0.000000 0.000000 0.000000 0.000000 0.000000 0.000000 -1.090838 -1.106376 -19.683616 0.215147 -0.245981 -0.077625 -6.309141 7.959756 4.973525 0.000000 0.000000 0.000000 -0.285046 -2.532748 -19.895800 -2.539524 1.638719 0.017976 -0.539637 -0.577298 2.314538 0.000000 0.000000 0.000000
